<?xml version="1.0" encoding="utf-8"?>
<!-- Generated by IcoMoon.io -->
<!DOCTYPE svg PUBLIC "-//W3C//DTD SVG 1.1//EN" "http://www.w3.org/Graphics/SVG/1.1/DTD/svg11.dtd">
<svg version="1.1" xmlns="http://www.w3.org/2000/svg" xmlns:xlink="http://www.w3.org/1999/xlink" width="32" height="32" viewBox="0 0 32 32">
<path fill="rgb(81, 45, 168)" d="M27.951 10.090c0.9 1.789 1.363 3.756 1.363 5.912 0 3.666-1.303 6.803-3.907 9.407s-5.741 3.907-9.407 3.907c-2.156 0-4.123-0.463-5.912-1.363l2.029-2.029c1.234 0.503 2.527 0.764 3.883 0.764 2.916 0 5.426-1.052 7.531-3.155s3.156-4.614 3.156-7.531c0-1.356-0.261-2.65-0.764-3.884l2.028-2.028zM6.077 19.888c-0.504-1.236-0.765-2.531-0.765-3.888l-0.001 0.001c0-2.917 1.052-5.427 3.156-7.531s4.615-3.156 7.531-3.156c1.357 0 2.652 0.261 3.887 0.764l2.027-2.027c-1.789-0.9-3.757-1.363-5.912-1.363-3.667 0-6.802 1.302-9.407 3.907s-3.907 5.74-3.907 9.407c0 2.156 0.463 4.123 1.364 5.912l2.027-2.026zM24.471 5.738l-18.735 18.735c0.269 0.318 0.552 0.632 0.856 0.937s0.618 0.588 0.938 0.857l18.735-18.734c-0.27-0.319-0.553-0.633-0.857-0.938s-0.619-0.588-0.937-0.857z"></path>
</svg>
