<?xml version="1.0" encoding="utf-8"?>
<!-- Generated by IcoMoon.io -->
<!DOCTYPE svg PUBLIC "-//W3C//DTD SVG 1.1//EN" "http://www.w3.org/Graphics/SVG/1.1/DTD/svg11.dtd">
<svg version="1.1" xmlns="http://www.w3.org/2000/svg" xmlns:xlink="http://www.w3.org/1999/xlink" width="32" height="32" viewBox="0 0 32 32">
<path fill="#512da8" d="M30.671 0h-10.657c-0.735 0-1.329 0.597-1.329 1.329 0 0.735 0.593 1.332 1.329 1.332h7.445l-9.172 9.172c-0.144 0.145-0.237 0.309-0.301 0.488-1.961-1.579-4.352-2.481-6.905-2.481-2.961 0-5.744 1.152-7.837 3.243-4.319 4.321-4.319 11.349 0 15.673 2.092 2.092 4.876 3.245 7.835 3.245 2.961 0 5.744-1.156 7.836-3.245 4.029-4.035 4.249-10.396 0.76-14.743 0.18-0.064 0.347-0.159 0.492-0.303l9.169-9.172v7.448c0 0.733 0.596 1.329 1.332 1.329 0.732 0 1.329-0.596 1.329-1.329v-10.657c0.003-0.732-0.595-1.328-1.327-1.328zM17.033 26.877c-3.184 3.181-8.731 3.181-11.909 0-3.284-3.283-3.284-8.627 0-11.912 1.589-1.591 3.705-2.465 5.956-2.465 2.247 0 4.364 0.873 5.953 2.465 3.283 3.285 3.283 8.629 0 11.912z"></path>
</svg>
