<?xml version="1.0" encoding="utf-8"?>
<!-- Generator: Adobe Illustrator 15.1.0, SVG Export Plug-In . SVG Version: 6.00 Build 0)  -->
<!DOCTYPE svg PUBLIC "-//W3C//DTD SVG 1.1//EN" "http://www.w3.org/Graphics/SVG/1.1/DTD/svg11.dtd">
<svg version="1.1" id="Layer_1" xmlns="http://www.w3.org/2000/svg" xmlns:xlink="http://www.w3.org/1999/xlink" x="0px" y="0px"
	 width="32px" height="32px" viewBox="0 0 32 32" enable-background="new 0 0 32 32" xml:space="preserve">
<path fill="#512DA8" d="M27.64,1c0.887,0,1.668,0.339,2.344,1.016C30.661,2.694,30.999,3.476,31,4.36v6.641h-3.36V4.36H21V1H27.64z
	 M27.64,27.64V21H31v6.64c0,0.887-0.338,1.668-1.017,2.344c-0.676,0.678-1.457,1.016-2.344,1.017H21v-3.36H27.64z M4.36,21v6.64
	h6.641V31H4.36c-0.886,0-1.667-0.338-2.344-1.017C1.34,29.308,1.001,28.526,1,27.64V21H4.36z M1,4.36
	c0-0.886,0.339-1.667,1.016-2.344C2.694,1.34,3.476,1.001,4.36,1h6.641v3.36H4.36v6.641H1V4.36z"/>
</svg>
