<?xml version="1.0" encoding="utf-8"?>
<!-- Generated by IcoMoon.io -->
<!DOCTYPE svg PUBLIC "-//W3C//DTD SVG 1.1//EN" "http://www.w3.org/Graphics/SVG/1.1/DTD/svg11.dtd">
<svg version="1.1" xmlns="http://www.w3.org/2000/svg" xmlns:xlink="http://www.w3.org/1999/xlink" width="32" height="32" viewBox="0 0 32 32">
<path fill="#512da8" d="M16 2.688c3.667 0 6.803 1.303 9.407 3.907 2.604 2.605 3.907 5.74 3.907 9.407s-1.303 6.803-3.907 9.408c-2.604 2.604-5.74 3.907-9.407 3.907s-6.803-1.303-9.407-3.907c-2.604-2.605-3.907-5.741-3.907-9.408s1.303-6.803 3.907-9.407c2.604-2.604 5.74-3.907 9.407-3.907zM26.688 16.001c0-2.917-1.052-5.427-3.156-7.531s-4.615-3.156-7.532-3.156-5.427 1.052-7.531 3.156-3.156 4.613-3.156 7.531h21.375z"></path>
</svg>
