<?xml version="1.0" encoding="utf-8"?>
<!-- Generated by IcoMoon.io -->
<!DOCTYPE svg PUBLIC "-//W3C//DTD SVG 1.1//EN" "http://www.w3.org/Graphics/SVG/1.1/DTD/svg11.dtd">
<svg version="1.1" xmlns="http://www.w3.org/2000/svg" xmlns:xlink="http://www.w3.org/1999/xlink" width="32" height="32" viewBox="0 0 32 32">
<path fill="#512da8" d="M27.617 0.504h-23.233c-0.368 0-0.667 0.299-0.667 0.667v22.235c0.049 2.553 2.016 3.417 3.831 4.091l-0.003 0.001c0 0 0.319 0.089 0.711 0.199s1.193 0.251 1.78 0.365c1.579 0.308 3.199 0.951 5.183 2.801 0.437 0.407 1.104 0.408 1.543 0.003 2-1.853 3.624-2.495 5.203-2.804 0.587-0.115 1.388-0.256 1.781-0.365l0.709-0.199c1.816-0.673 3.783-1.537 3.829-4.092v-22.235c0-0.368-0.299-0.667-0.667-0.667zM26.811 3.741v18.975c-0.041 2.324-1.772 3.111-3.369 3.721l-0.625 0.183c-0.347 0.1-1.051 0.229-1.568 0.331-1.391 0.283-2.819 0.863-4.58 2.551-0.387 0.368-0.972 0.365-1.357-0.003-1.745-1.685-3.172-2.265-4.561-2.548-0.516-0.101-1.221-0.231-1.567-0.331-0.344-0.099-0.625-0.183-0.625-0.183h0.003c-1.597-0.613-3.328-1.4-3.372-3.721v-20.213c0-0.335 0.263-0.607 0.587-0.607h20.448c0.324 0 0.587 0.271 0.587 0.607v1.239zM22.917 6.812c-0.911 0.2-1.471 1.165-1.253 2.152 0.14 0.643 0.575 1.133 1.113 1.349-0.664 1.7-1.683 3.733-3.013 4.548-1.749 1.073-2.299-4.16-3.189-6.621 0.66-0.248 1.141-0.927 1.141-1.731 0-1.011-0.755-1.833-1.684-1.833-0.927 0-1.681 0.82-1.681 1.833 0 0.803 0.479 1.48 1.14 1.731-0.888 2.461-1.467 7.665-3.224 6.6-1.332-0.807-2.364-2.835-3.036-4.531 0.535-0.219 0.967-0.712 1.104-1.356 0.211-0.988-0.357-1.951-1.267-2.143-0.907-0.195-1.816 0.453-2.027 1.441-0.212 0.992 0.356 1.953 1.261 2.147 0.019 0.004 0.032 0.001 0.052 0.004l0.021 10.797h15.32l-0.039-10.801c0.015-0.001 0.031 0 0.052-0.003 0.903-0.199 1.467-1.161 1.249-2.153-0.219-0.987-1.135-1.629-2.036-1.432l-0.005 0.001zM8.449 21.569h15.167v2.060h-15.167v-2.060z"></path>
</svg>
