<?xml version="1.0" encoding="utf-8"?>
<!-- Generated by IcoMoon.io -->
<!DOCTYPE svg PUBLIC "-//W3C//DTD SVG 1.1//EN" "http://www.w3.org/Graphics/SVG/1.1/DTD/svg11.dtd">
<svg version="1.1" xmlns="http://www.w3.org/2000/svg" xmlns:xlink="http://www.w3.org/1999/xlink" width="32" height="32" viewBox="0 0 32 32">
<path fill="#512da8" d="M27.617 0.504h-23.233c-0.368 0-0.667 0.299-0.667 0.667v22.236c0.049 2.552 2.016 3.416 3.831 4.089l-0.003 0.001c0 0 0.319 0.088 0.711 0.197s1.193 0.251 1.78 0.364c1.579 0.307 3.199 0.951 5.183 2.803 0.437 0.408 1.104 0.409 1.541 0.003 2-1.855 3.625-2.495 5.203-2.805 0.585-0.115 1.388-0.255 1.781-0.364l0.708-0.197c1.816-0.673 3.784-1.537 3.829-4.091v-22.236c0.003-0.368-0.297-0.667-0.664-0.667zM26.809 3.741v18.975c-0.040 2.324-1.771 3.111-3.368 3.721l-0.627 0.183c-0.347 0.1-1.049 0.229-1.568 0.331-1.391 0.283-2.817 0.861-4.581 2.551-0.387 0.368-0.972 0.365-1.357-0.003-1.745-1.687-3.172-2.265-4.561-2.548-0.516-0.101-1.221-0.231-1.567-0.331-0.344-0.099-0.625-0.183-0.625-0.183h0.005c-1.597-0.613-3.328-1.401-3.372-3.721v-20.213c0-0.335 0.263-0.607 0.587-0.607h20.448c0.324 0 0.587 0.271 0.587 0.607v1.239zM23.333 15.645h-6.3v6.3h-2.067v-6.3h-6.3v-2.067h6.3v-6.301h2.067v6.301h6.3z"></path>
</svg>
