<?xml version="1.0" encoding="utf-8"?>
<!-- Generated by IcoMoon.io -->
<!DOCTYPE svg PUBLIC "-//W3C//DTD SVG 1.1//EN" "http://www.w3.org/Graphics/SVG/1.1/DTD/svg11.dtd">
<svg version="1.1" xmlns="http://www.w3.org/2000/svg" xmlns:xlink="http://www.w3.org/1999/xlink" width="32" height="32" viewBox="0 0 32 32">
<path fill="#512da8" d="M26.045 10.045c0-5.539-4.505-10.045-10.044-10.045s-10.047 4.507-10.047 10.045c0 5.1 3.824 9.316 8.753 9.952v6.12h-2.551c-0.713 0-1.292 0.579-1.292 1.292s0.579 1.292 1.292 1.292h2.551v2.009c0 0.713 0.579 1.292 1.292 1.292 0.712 0 1.291-0.579 1.291-1.292v-2.009h2.551c0.715 0 1.293-0.579 1.293-1.292s-0.579-1.292-1.293-1.292h-2.551v-6.12c4.931-0.637 8.753-4.851 8.753-9.952zM8.539 10.045c0-4.115 3.347-7.463 7.463-7.463 4.113 0 7.463 3.347 7.463 7.463s-3.348 7.463-7.463 7.463c-4.115 0-7.463-3.347-7.463-7.463z"></path>
</svg>
