<?xml version="1.0" encoding="utf-8"?>
<!-- Generated by IcoMoon.io -->
<!DOCTYPE svg PUBLIC "-//W3C//DTD SVG 1.1//EN" "http://www.w3.org/Graphics/SVG/1.1/DTD/svg11.dtd">
<svg version="1.1" xmlns="http://www.w3.org/2000/svg" xmlns:xlink="http://www.w3.org/1999/xlink" width="32" height="32" viewBox="0 0 32 32">
<path fill="#512da8" d="M22.111 0c-0.607 0-1.099 0.492-1.099 1.099s0.492 1.097 1.099 1.097h1.232l-4.517 4.517c-1.469-1.195-3.34-1.915-5.377-1.915-4.708 0-8.539 3.829-8.539 8.539 0 4.336 3.251 7.917 7.44 8.46v5.201h-2.169c-0.607 0-1.097 0.492-1.097 1.099s0.492 1.097 1.097 1.097h2.169v1.707c0 0.607 0.492 1.099 1.097 1.099s1.097-0.492 1.097-1.099v-1.707h2.169c0.607 0 1.096-0.492 1.096-1.097s-0.492-1.099-1.096-1.099h-2.169v-5.201c4.191-0.541 7.44-4.124 7.44-8.46 0-1.881-0.62-3.616-1.652-5.029l4.561-4.561v0.972c0 0.607 0.492 1.099 1.097 1.099s1.097-0.492 1.097-1.099v-4.72l-4.977 0.001zM13.447 19.681c-3.497 0-6.343-2.845-6.343-6.343s2.845-6.343 6.343-6.343 6.343 2.845 6.343 6.343-2.845 6.343-6.343 6.343zM17.361 13.439c0 2.12-1.719 3.839-3.839 3.839s-3.839-1.719-3.839-3.839c0-2.12 1.719-3.839 3.839-3.839s3.839 1.719 3.839 3.839z"></path>
</svg>
