<?xml version="1.0" encoding="utf-8"?>
<!-- Generated by IcoMoon.io -->
<!DOCTYPE svg PUBLIC "-//W3C//DTD SVG 1.1//EN" "http://www.w3.org/Graphics/SVG/1.1/DTD/svg11.dtd">
<svg version="1.1" xmlns="http://www.w3.org/2000/svg" xmlns:xlink="http://www.w3.org/1999/xlink" width="32" height="32" viewBox="0 0 32 32">
<path fill="#512da8" d="M25.409 6.593c-2.605-2.604-5.741-3.907-9.408-3.907s-6.803 1.303-9.407 3.907c-2.604 2.604-3.907 5.74-3.907 9.407s1.303 6.803 3.907 9.407c2.605 2.604 5.74 3.907 9.407 3.907s6.803-1.303 9.408-3.907c2.604-2.604 3.907-5.74 3.907-9.407s-1.303-6.803-3.907-9.407zM16 19.839c-2.12 0-3.839-1.719-3.839-3.839s1.719-3.839 3.839-3.839 3.839 1.719 3.839 3.839c0 2.12-1.719 3.839-3.839 3.839z"></path>
</svg>
