<?xml version="1.0" encoding="utf-8"?>
<!-- Generated by IcoMoon.io -->
<!DOCTYPE svg PUBLIC "-//W3C//DTD SVG 1.1//EN" "http://www.w3.org/Graphics/SVG/1.1/DTD/svg11.dtd">
<svg version="1.1" xmlns="http://www.w3.org/2000/svg" xmlns:xlink="http://www.w3.org/1999/xlink" width="32" height="32" viewBox="0 0 32 32">
<path fill="#512da8" d="M25.407 6.595c-2.604-2.604-5.74-3.907-9.407-3.907s-6.803 1.303-9.407 3.907c-2.604 2.604-3.907 5.74-3.907 9.407s1.303 6.804 3.907 9.408c2.604 2.604 5.74 3.907 9.407 3.907s6.803-1.303 9.407-3.907 3.907-5.741 3.907-9.408-1.303-6.801-3.907-9.407zM19.839 16.001c0 2.121-1.719 3.84-3.839 3.84s-3.839-1.719-3.839-3.84h-6.848c0-2.917 1.052-5.427 3.156-7.531s4.613-3.156 7.531-3.156c2.917 0 5.427 1.052 7.531 3.156s3.156 4.613 3.156 7.531h-6.848zM16 12.163c-2.12 0-3.839 1.719-3.839 3.84h7.677c0-2.121-1.719-3.84-3.839-3.84z"></path>
</svg>
