<?xml version="1.0" encoding="utf-8"?>
<!-- Generator: Adobe Illustrator 15.1.0, SVG Export Plug-In . SVG Version: 6.00 Build 0)  -->
<!DOCTYPE svg PUBLIC "-//W3C//DTD SVG 1.1//EN" "http://www.w3.org/Graphics/SVG/1.1/DTD/svg11.dtd">
<svg version="1.1" id="Layer_1" xmlns="http://www.w3.org/2000/svg" xmlns:xlink="http://www.w3.org/1999/xlink" x="0px" y="0px"
	 width="32px" height="32px" viewBox="0 0 32 32" enable-background="new 0 0 32 32" xml:space="preserve">
<path fill="#512DA8" d="M27.641,27.641V4.36H4.36v23.28H27.641z M27.641,1c0.886,0,1.667,0.339,2.344,1.017
	C30.661,2.694,30.999,3.475,31,4.36v23.28c0,0.886-0.338,1.667-1.016,2.344c-0.677,0.677-1.458,1.015-2.344,1.016H4.36
	c-0.886,0-1.667-0.338-2.344-1.016C1.339,29.308,1,28.526,1,27.641V4.36c0-0.886,0.339-1.667,1.017-2.344
	C2.694,1.339,3.475,1,4.36,1H27.641z M16,9.36c1.823,0,3.386,0.651,4.688,1.953c1.302,1.303,1.953,2.865,1.953,4.688
	c0.001,1.822-0.649,3.385-1.953,4.688S17.821,22.643,16,22.643c-1.822,0-3.384-0.651-4.688-1.954s-1.954-2.865-1.954-4.688
	c0-1.823,0.652-3.385,1.954-4.688C12.614,10.011,14.177,9.36,16,9.36z"/>
</svg>
