<?xml version="1.0" encoding="utf-8"?>
<!-- Generated by IcoMoon.io -->
<!DOCTYPE svg PUBLIC "-//W3C//DTD SVG 1.1//EN" "http://www.w3.org/Graphics/SVG/1.1/DTD/svg11.dtd">
<svg version="1.1" xmlns="http://www.w3.org/2000/svg" xmlns:xlink="http://www.w3.org/1999/xlink" width="32" height="32" viewBox="0 0 32 32">
<path fill="#512da8" d="M16 26.688c2.917 0 5.427-1.052 7.531-3.156s3.156-4.613 3.156-7.529-1.052-5.427-3.156-7.531-4.613-3.157-7.531-3.157-5.427 1.052-7.531 3.156-3.156 4.613-3.156 7.531 1.052 5.425 3.156 7.529 4.613 3.157 7.531 3.157zM16 2.688c3.667 0 6.803 1.303 9.407 3.907 2.604 2.605 3.907 5.74 3.907 9.407s-1.303 6.803-3.907 9.408c-2.604 2.604-5.74 3.907-9.407 3.907s-6.803-1.303-9.407-3.907c-2.604-2.605-3.907-5.741-3.907-9.408s1.303-6.803 3.907-9.407c2.604-2.604 5.74-3.907 9.407-3.907zM19.839 16.001c0 2.12-1.719 3.839-3.839 3.839s-3.839-1.719-3.839-3.839c0-2.12 1.719-3.839 3.839-3.839s3.839 1.72 3.839 3.839z"></path>
</svg>
