<?xml version="1.0" standalone="no"?>
<!DOCTYPE svg PUBLIC "-//W3C//DTD SVG 1.1//EN" "http://www.w3.org/Graphics/SVG/1.1/DTD/svg11.dtd" >
<svg xmlns="http://www.w3.org/2000/svg">
<metadata>Generated by IcoMoon</metadata>
<defs>
<font id="icomoon" horiz-adv-x="1024">
<font-face units-per-em="1024" ascent="960" descent="-64" />
<missing-glyph horiz-adv-x="1024" />
<glyph unicode="&#x20;" horiz-adv-x="512" d="" />
<glyph unicode="&#xe210;" glyph-name="more" d="M512 256.667q34 0 60-26t26-60-26-60-60-26-60 26-26 60 26 60 60 26zM512 512.667q34 0 60-26t26-60-26-60-60-26-60 26-26 60 26 60 60 26zM512 596.667q-34 0-60 26t-26 60 26 60 60 26 60-26 26-60-26-60-60-26z" />
<glyph unicode="&#xe25e;" glyph-name="checked-no" d="M512 84.667q140 0 241 101t101 241-101 241-241 101-241-101-101-241 101-241 241-101zM512 852.667q176 0 301-125t125-301-125-301-301-125-301 125-125 301 125 301 301 125z" />
<glyph unicode="&#xe281;" glyph-name="checked-yes" d="M426 212.667l384 384-60 62-324-324-152 152-60-60zM512 852.667q176 0 301-125t125-301-125-301-301-125-301 125-125 301 125 301 301 125z" />
<glyph unicode="&#xe299;" glyph-name="star" d="M512 202.667l-264-160 70 300-232 202 306 26 120 282 120-282 306-26-232-202 70-300z" />
<glyph unicode="&#xe29b;" glyph-name="help" d="M642 458.667q40 40 40 96 0 70-50 120t-120 50-120-50-50-120h84q0 34 26 60t60 26 60-26 26-60-26-60l-52-54q-50-54-50-120v-22h84q0 66 50 120zM554 128.667v84h-84v-84h84zM512 852.667q176 0 301-125t125-301-125-301-301-125-301 125-125 301 125 301 301 125z" />
<glyph unicode="&#xe310;" glyph-name="menu" d="M128 724.667h768v-84h-768v84zM128 468.667v86h768v-86h-768zM128 128.667v84h768v-84h-768zM128 298.667v86h768v-86h-768z" />
<glyph unicode="&#xe900;" glyph-name="add" d="M809.984 406.016h-256v-256h-84.011v256h-256v84.011h256v256h84.011v-256h256v-84.011z" />
<glyph unicode="&#xe901;" glyph-name="adopted" d="M883.755 943.872h-743.467c-11.776 0-21.333-9.557-21.333-21.333v-711.552c1.579-81.664 64.512-109.312 122.581-130.859l-0.085-0.043c0 0 10.197-2.816 22.741-6.315s38.187-8.021 56.96-11.648c50.517-9.813 102.357-30.421 165.845-89.685 13.995-13.056 35.328-13.099 49.323-0.085 64 59.349 116.011 79.829 166.485 89.771 18.731 3.669 44.416 8.149 57.003 11.648l22.656 6.315c58.112 21.547 121.088 49.195 122.539 130.901v711.552c0.085 11.776-9.515 21.333-21.248 21.333zM857.899 840.277v-607.189c-1.28-74.368-56.661-99.541-107.776-119.083l-20.053-5.845c-11.093-3.2-33.579-7.339-50.176-10.581-44.501-9.045-90.155-27.563-146.603-81.621-12.373-11.776-31.104-11.691-43.435 0.085-55.851 53.973-101.504 72.491-145.963 81.536-16.512 3.243-39.083 7.381-50.133 10.581-11.008 3.157-20.011 5.845-20.011 5.845h0.171c-51.115 19.627-106.496 44.843-107.904 119.083v646.827c0 10.709 8.405 19.413 18.773 19.413h654.336c10.368 0 18.773-8.661 18.773-19.413v-39.637zM746.667 459.349h-201.6v-201.6h-66.133v201.6h-201.6v66.133h201.6v201.643h66.133v-201.643h201.6z" />
<glyph unicode="&#xe902;" glyph-name="background-antag" d="M1012.064 447.904l-500.128-500-153.984 153.984 51.648 51.648 102.4-102.432 396.736 396.8-102.4 102.368 51.648 51.648 154.080-154.016zM681.024 675.648l0.704-0.704-396.8-396.672-0.672 0.672-51.616-51.712 57.408-57.408 500.032 500.032-57.408 57.408-51.648-51.616zM216.384 346.816l-101.184 101.184 396.704 396.704 101.216-101.152 51.616 51.648-152.864 152.832-500.032-500.032 152.864-152.864 51.68 51.68z" />
<glyph unicode="&#xe903;" glyph-name="background" d="M894.432 637.12c28.8-57.248 43.616-120.192 43.616-189.184 0-117.312-41.696-217.696-125.024-301.024s-183.712-125.024-301.024-125.024c-68.992 0-131.936 14.816-189.184 43.616l64.928 64.928c39.488-16.096 80.864-24.448 124.256-24.448 93.312 0 173.632 33.664 240.992 100.96 67.328 67.328 100.992 147.648 100.992 240.992 0 43.392-8.352 84.8-24.448 124.288l64.896 64.896zM194.464 323.584c-16.128 39.552-24.48 80.992-24.48 124.416l-0.032-0.032c0 93.344 33.664 173.664 100.992 240.992s147.68 100.992 240.992 100.992c43.424 0 84.864-8.352 124.384-24.448l64.864 64.864c-57.248 28.8-120.224 43.616-189.184 43.616-117.344 0-217.664-41.664-301.024-125.024s-125.024-183.68-125.024-301.024c0-68.992 14.816-131.936 43.648-189.184l64.864 64.832zM783.072 776.384l-599.52-599.52c8.608-10.176 17.664-20.224 27.392-29.984s19.776-18.816 30.016-27.424l599.52 599.488c-8.64 10.208-17.696 20.256-27.424 30.016s-19.808 18.816-29.984 27.424z" />
<glyph unicode="&#xe904;" glyph-name="arrow_forward" d="M512 790.016l342.016-342.016-342.016-342.016-59.989 59.989 237.995 240h-520.021v84.011h520.021l-237.995 240z" />
<glyph unicode="&#xe905;" glyph-name="check" d="M384 269.995l452.011 452.011 59.989-59.989-512-512-237.995 237.995 59.989 59.989z" />
<glyph unicode="&#xe906;" glyph-name="clear" d="M809.984 685.995l-237.995-237.995 237.995-237.995-59.989-59.989-237.995 237.995-237.995-237.995-59.989 59.989 237.995 237.995-237.995 237.995 59.989 59.989 237.995-237.995 237.995 237.995z" />
<glyph unicode="&#xe907;" glyph-name="appears" d="M884.48 75.52v212.48h107.52v-212.48c0-28.416-10.816-53.376-32.544-75.008-21.632-21.696-46.592-32.512-75.008-32.544h-212.448v107.52h212.48zM884.48 928c28.416 0 53.376-10.848 75.008-32.544 21.664-21.664 32.48-46.656 32.512-74.976v-212.512h-107.52v212.512h-212.48v107.52h212.48zM139.52 820.48v-212.512h-107.52v212.512c0 28.352 10.848 53.344 32.544 75.008 21.664 21.664 46.656 32.48 74.976 32.512h212.512v-107.52h-212.512zM139.52 288v-212.48h212.512v-107.52h-212.512c-28.352 0-53.344 10.816-75.008 32.544-21.664 21.6-32.48 46.592-32.512 74.976v212.48h107.52zM512 660.48c58.336 0 108.352-20.832 150.016-62.496 41.664-41.696 62.496-91.68 62.496-150.016 0.032-58.304-20.768-108.32-62.496-150.016s-91.744-62.528-150.016-62.528c-58.304 0-108.288 20.832-150.016 62.528s-62.528 91.68-62.528 150.016c0 58.336 20.864 108.32 62.528 150.016 41.664 41.664 91.68 62.496 150.016 62.496z" />
<glyph unicode="&#xe908;" glyph-name="female-in" d="M833.451 638.549c0 177.237-144.213 321.451-321.408 321.451s-321.493-144.213-321.493-321.451c0-163.2 122.368-298.112 280.107-318.464v-195.84h-81.621c-22.827 0-41.344-18.517-41.344-41.344s18.517-41.344 41.344-41.344h81.621v-64.341c0-22.827 18.517-41.344 41.344-41.344 22.784 0 41.301 18.517 41.301 41.344v64.341h81.621c22.869 0 41.429 18.517 41.429 41.344s-18.56 41.344-41.429 41.344h-81.621v195.84c157.781 20.395 280.107 155.221 280.149 318.464v0zM273.237 638.549c0 131.669 107.093 238.805 238.805 238.805 131.627 0 238.805-107.093 238.805-238.805s-107.136-238.805-238.805-238.805-238.805 107.093-238.805 238.805zM634.837 631.296c0-67.84-54.997-122.837-122.837-122.837s-122.837 54.997-122.837 122.837c0 67.84 54.997 122.837 122.837 122.837s122.837-54.997 122.837-122.837z" />
<glyph unicode="&#xe909;" glyph-name="female" d="M833.451 638.549c0 177.237-144.171 321.451-321.408 321.451s-321.493-144.213-321.493-321.451c0-163.2 122.368-298.112 280.107-318.464v-195.84h-81.621c-22.827 0-41.344-18.517-41.344-41.344s18.517-41.344 41.344-41.344h81.621v-64.299c0-22.827 18.517-41.344 41.344-41.344 22.784 0 41.301 18.517 41.301 41.344v64.299h81.621c22.869 0 41.387 18.517 41.387 41.344s-18.517 41.344-41.387 41.344h-81.621v195.84c157.781 20.395 280.107 155.221 280.107 318.464zM273.237 638.549c0 131.669 107.093 238.805 238.805 238.805 131.627 0 238.805-107.093 238.805-238.805s-107.136-238.805-238.805-238.805c-131.669 0-238.805 107.093-238.805 238.805z" />
<glyph unicode="&#xe90a;" glyph-name="heir" d="M883.755 943.872h-743.467c-11.776 0-21.333-9.557-21.333-21.333v-711.509c1.579-81.707 64.512-109.355 122.581-130.901l-0.085-0.043c0 0 10.197-2.859 22.741-6.357s38.187-8.021 56.96-11.691c50.517-9.856 102.357-30.421 165.845-89.643 13.995-13.013 35.328-13.056 49.365-0.085 64 59.307 115.968 79.829 166.485 89.728 18.773 3.669 44.416 8.192 57.003 11.691l22.699 6.357c58.112 21.547 121.045 49.195 122.539 130.944v711.509c0 11.776-9.557 21.333-21.333 21.333zM857.941 840.277v-607.189c-1.323-74.368-56.704-99.541-107.819-119.083l-20.011-5.845c-11.093-3.2-33.621-7.339-50.176-10.581-44.501-9.045-90.197-27.605-146.56-81.621-12.373-11.776-31.104-11.691-43.435 0.085-55.851 53.931-101.504 72.491-145.963 81.536-16.512 3.243-39.083 7.381-50.133 10.581-11.008 3.157-20.011 5.845-20.011 5.845h0.085c-51.115 19.627-106.496 44.8-107.904 119.083v646.827c0 10.709 8.405 19.413 18.773 19.413h654.336c10.368 0 18.773-8.661 18.773-19.413v-39.637zM733.355 742.016c-29.141-6.4-47.061-37.291-40.107-68.864 4.48-20.565 18.389-36.267 35.627-43.179-21.248-54.4-53.845-119.467-96.427-145.536-55.979-34.347-73.557 133.12-102.059 211.883 21.12 7.936 36.523 29.653 36.523 55.381 0 32.341-24.149 58.667-53.888 58.667-29.653 0-53.803-26.24-53.803-58.667 0-25.685 15.317-47.36 36.48-55.381-28.416-78.763-46.933-245.291-103.168-211.2-42.624 25.813-75.648 90.709-97.152 144.981 17.109 6.997 30.933 22.784 35.328 43.392 6.741 31.616-11.435 62.421-40.533 68.565-29.013 6.229-58.112-14.507-64.853-46.123-6.784-31.744 11.392-62.507 40.363-68.693 0.597-0.128 1.024-0.043 1.664-0.128l0.683-345.515h490.24l-1.237 345.643c0.469 0.043 0.981 0 1.664 0.085 28.885 6.357 46.933 37.163 39.979 68.907-6.997 31.573-36.309 52.139-65.152 45.824l-0.171-0.043zM270.379 269.781h485.333v-65.92h-485.333v65.92z" />
<glyph unicode="&#xe90b;" glyph-name="legit" d="M883.755 943.872h-743.467c-11.776 0-21.333-9.557-21.333-21.333v-711.552c1.579-81.664 64.512-109.312 122.581-130.859l-0.085-0.043c0 0 10.197-2.816 22.741-6.315s38.187-8.021 56.96-11.648c50.517-9.813 102.357-30.421 165.845-89.685 13.995-13.056 35.328-13.099 49.323-0.085 64 59.349 116.011 79.829 166.485 89.771 18.731 3.669 44.416 8.149 57.003 11.648l22.656 6.315c58.112 21.547 121.088 49.195 122.539 130.901v711.552c0.085 11.776-9.515 21.333-21.248 21.333zM857.899 840.277v-607.189c-1.28-74.368-56.661-99.541-107.776-119.083l-20.053-5.845c-11.093-3.2-33.579-7.339-50.176-10.581-44.501-9.045-90.155-27.563-146.603-81.621-12.373-11.776-31.104-11.691-43.435 0.085-55.851 53.973-101.504 72.491-145.963 81.536-16.512 3.243-39.083 7.381-50.133 10.581-11.008 3.157-20.011 5.845-20.011 5.845h0.171c-51.115 19.627-106.496 44.843-107.904 119.083v646.827c0 10.709 8.405 19.413 18.773 19.413h654.336c10.368 0 18.773-8.661 18.773-19.413v-39.637zM426.283 395.563l282.837 282.837 37.547-37.504-320.384-320.384-148.949 148.907 37.547 37.504 111.403-111.36z" />
<glyph unicode="&#xe90c;" glyph-name="male-in" d="M981.461 960h-341.035c-23.509 0-42.496-19.115-42.496-42.539 0-23.509 18.944-42.624 42.496-42.624h238.251l-293.504-293.504c-4.565-4.651-7.595-9.899-9.685-15.616-62.72 50.517-139.221 79.403-220.928 79.403-94.763 0-183.808-36.864-250.795-103.765-138.197-138.283-138.197-363.179 0-501.504 66.944-66.944 156.032-103.893 250.709-103.893 94.763 0 183.808 36.992 250.752 103.893 128.896 129.067 135.979 332.672 24.277 471.765 5.803 2.048 11.136 5.077 15.744 9.685l293.419 293.504v-238.379c0-23.467 19.029-42.539 42.624-42.539 23.424 0 42.539 19.072 42.539 42.539v341.035c0.128 23.424-18.987 42.496-42.368 42.539v0zM545.067 99.925c-101.888-101.803-279.381-101.803-381.141 0-105.088 105.088-105.088 276.096 0 381.184 50.859 50.901 118.571 78.891 190.592 78.891 71.893 0 139.648-27.947 190.507-78.891 105.045-105.131 105.045-276.096 0.043-381.184zM480.555 291.541c0-67.84-54.997-122.837-122.837-122.837s-122.837 54.997-122.837 122.837c0 67.84 54.997 122.837 122.837 122.837s122.837-54.997 122.837-122.837z" />
<glyph unicode="&#xe90d;" glyph-name="male" d="M981.461 960h-341.035c-23.509 0-42.539-19.115-42.539-42.539 0-23.509 18.987-42.624 42.539-42.624h238.251l-293.504-293.504c-4.608-4.651-7.595-9.899-9.643-15.616-62.763 50.517-139.264 79.403-220.971 79.403-94.763 0-183.808-36.864-250.795-103.765-138.197-138.283-138.197-363.179 0-501.547 66.944-66.944 156.032-103.851 250.709-103.851 94.763 0 183.808 36.992 250.752 103.851 128.939 129.109 135.979 332.672 24.32 471.765 5.76 2.048 11.093 5.077 15.744 9.685l293.419 293.504v-238.336c0-23.467 19.072-42.539 42.624-42.539 23.424 0 42.539 19.072 42.539 42.539v341.035c0.085 23.424-19.029 42.496-42.453 42.496zM545.067 99.925c-101.888-101.803-279.381-101.803-381.099 0-105.088 105.045-105.088 276.053 0 381.184 50.859 50.901 118.571 78.891 190.592 78.891 71.893 0 139.648-27.947 190.507-78.891 105.045-105.131 105.045-276.139 0-381.184z" />
<glyph unicode="&#xe90e;" glyph-name="nb-in" d="M707.541 960c-19.413 0-35.157-15.744-35.157-35.157s15.744-35.115 35.157-35.115h39.424l-144.555-144.555c-47.019 38.229-106.88 61.269-172.075 61.269-150.656 0-273.237-122.539-273.237-273.237 0-138.752 104.021-253.355 238.080-270.72v-166.443h-69.419c-19.413 0-35.115-15.744-35.115-35.157s15.744-35.115 35.115-35.115h69.419v-54.613c0-19.413 15.744-35.157 35.115-35.157s35.115 15.744 35.115 35.157v54.613h69.419c19.413 0 35.072 15.744 35.072 35.115s-15.744 35.157-35.072 35.157h-69.419v166.443c134.101 17.323 238.080 131.968 238.080 270.72 0 60.203-19.84 115.712-52.864 160.939l145.963 145.963v-31.104c0-19.413 15.744-35.157 35.115-35.157s35.115 15.744 35.115 35.157v151.040l-159.275-0.043zM430.293 330.197c-111.915 0-202.965 91.051-202.965 202.965s91.051 202.965 202.965 202.965 202.965-91.051 202.965-202.965-91.051-202.965-202.965-202.965zM555.563 529.963c0-67.84-54.997-122.837-122.837-122.837s-122.837 54.997-122.837 122.837c0 67.84 54.997 122.837 122.837 122.837s122.837-54.997 122.837-122.837z" />
<glyph unicode="&#xe90f;" glyph-name="nb" d="M707.541 960c-19.413 0-35.157-15.744-35.157-35.157s15.744-35.115 35.157-35.115h39.424l-144.555-144.555c-47.019 38.229-106.88 61.269-172.075 61.269-150.656 0-273.237-122.539-273.237-273.237 0-138.752 104.021-253.397 238.080-270.72v-166.443h-69.419c-19.413 0-35.115-15.744-35.115-35.157s15.744-35.157 35.115-35.157h69.419v-54.613c0-19.413 15.744-35.157 35.115-35.157s35.115 15.744 35.115 35.157v54.613h69.419c19.413 0 35.115 15.744 35.115 35.157s-15.744 35.157-35.115 35.157h-69.419v166.443c134.101 17.323 238.080 131.968 238.080 270.72 0 60.203-19.797 115.712-52.864 160.939l145.963 145.963v-31.104c0-19.413 15.744-35.157 35.115-35.157s35.157 15.744 35.157 35.157v151.040h-159.36zM430.293 330.197c-111.915 0-202.965 91.051-202.965 202.965s91.051 202.965 202.965 202.965 202.965-91.051 202.965-202.965-91.051-202.965-202.965-202.965z" />
<glyph unicode="&#xe910;" glyph-name="offpage-antag" d="M511.915 948.053l-500.053-500.053 500.096-500.096 500.139 500.011-500.181 500.139zM511.915 844.715l169.813-169.771-396.757-396.715-169.771 169.771 396.715 396.715zM342.229 220.971l396.757 396.715 169.771-169.728-396.757-396.8-169.771 169.813z" />
<glyph unicode="&#xe911;" glyph-name="offpage" d="M512 105.984q139.989 0 240.981 100.992t100.992 240.981q0 114.005-73.984 210.005l-477.995-477.995q96-73.984 210.005-73.984zM169.984 448q0-114.005 73.984-210.005l477.995 477.995q-96 73.984-210.005 73.984-139.989 0-240.981-100.992t-100.992-240.981zM512 873.984q176 0 301.013-125.013t125.013-301.013-125.013-301.013-301.013-125.013-301.013 125.013-125.013 301.013 125.013 301.013 301.013 125.013z" />
<glyph unicode="&#xe912;" glyph-name="primary-antag" d="M11.905 459.92l500.061 500.061 500.091-500.091-500.061-500.061-500.091 500.091z" />
<glyph unicode="&#xe913;" glyph-name="primary-pov-antag" d="M511.957 948.096l-500.053-500.096 500.096-500.096 500.139 500.053-500.181 500.139zM512 325.163c-67.84 0-122.837 54.997-122.837 122.837s54.997 122.837 122.837 122.837 122.837-54.997 122.837-122.837-54.997-122.837-122.837-122.837z" />
<glyph unicode="&#xe914;" glyph-name="primary-pov" d="M813.099 749.013c-83.371 83.328-183.723 125.013-301.056 125.013s-217.685-41.685-301.013-125.013c-83.328-83.328-125.013-183.68-125.013-301.013s41.685-217.685 125.013-301.013c83.371-83.328 183.68-125.013 301.013-125.013s217.685 41.685 301.056 125.013c83.328 83.328 125.013 183.68 125.013 301.013s-41.685 217.685-125.013 301.013zM512 325.163c-67.84 0-122.837 54.997-122.837 122.837s54.997 122.837 122.837 122.837 122.837-54.997 122.837-122.837c0-67.84-54.997-122.837-122.837-122.837z" />
<glyph unicode="&#xe915;" glyph-name="primary" d="M86.016 448q0 176 125.013 301.013t301.013 125.013 301.013-125.013 125.013-301.013-125.013-301.013-301.013-125.013-301.013 125.013-125.013 301.013z" />
<glyph unicode="&#xe916;" glyph-name="open" d="M891.802 660.019c13.926 13.722 36.301 13.722 50.125 0s13.875-35.891 0-49.613l-404.89-400.896c-13.824-13.722-36.198-13.722-50.125 0l-404.89 400.896c-13.824 13.722-13.824 35.891 0 49.613 13.875 13.722 36.301 13.722 50.125 0l379.853-365.619 379.802 365.619z" />
<glyph unicode="&#xe917;" glyph-name="secondary-antag" d="M11.904 448l500.096-500.096 500.139 500.011-500.181 500.139-500.053-500.053zM908.8 447.957l-396.757-396.757-396.8 396.8 396.715 396.715 396.843-396.757zM69.333 447.915v-13.568l445.013-445.013h16.64l-7.509 7.552 444.971 444.971 7.552-7.509v13.568z" />
<glyph unicode="&#xe918;" glyph-name="secondary-pov-antag" d="M512 570.795c-67.84 0-122.837-54.997-122.837-122.88h245.675c0 67.883-54.997 122.88-122.837 122.88zM511.957 948.053l-500.053-500.053 500.096-500.096 500.139 500.011-500.181 500.139zM511.957 844.715l396.8-396.757h-273.92c0-67.883-54.997-122.88-122.837-122.88s-122.837 54.997-122.837 122.88l-273.92 0.043 396.715 396.715z" />
<glyph unicode="&#xe919;" glyph-name="secondary-pov" d="M813.013 748.971c-83.328 83.328-183.68 125.013-301.013 125.013s-217.685-41.685-301.013-125.013c-83.328-83.328-125.013-183.68-125.013-301.013s41.685-217.728 125.013-301.056c83.328-83.328 183.68-125.013 301.013-125.013s217.685 41.685 301.013 125.013 125.013 183.723 125.013 301.056-41.685 217.643-125.013 301.013zM634.837 447.957c0-67.883-54.997-122.88-122.837-122.88s-122.837 54.997-122.837 122.88h-219.136c0 93.355 33.664 173.653 100.992 240.981s147.627 100.992 240.981 100.992c93.355 0 173.653-33.664 240.981-100.992s100.992-147.627 100.992-240.981h-219.136zM512 570.795c-67.84 0-122.837-54.997-122.837-122.88h245.675c0 67.883-54.997 122.88-122.837 122.88z" />
<glyph unicode="&#xe91a;" glyph-name="secondary" d="M512 873.984c117.333 0 217.685-41.685 301.013-125.013 83.328-83.371 125.013-183.68 125.013-301.013s-41.685-217.685-125.013-301.056c-83.328-83.328-183.68-125.013-301.013-125.013s-217.685 41.685-301.013 125.013c-83.328 83.371-125.013 183.723-125.013 301.056s41.685 217.685 125.013 301.013c83.328 83.328 183.68 125.013 301.013 125.013zM854.016 447.957c0 93.355-33.664 173.653-100.992 240.981s-147.669 100.992-241.024 100.992-173.653-33.664-240.981-100.992-100.992-147.627-100.992-240.981h683.989z" />
<glyph unicode="&#xe91b;" glyph-name="tertiary-antag" d="M11.904 448l500.096-500.096 500.139 500.053-500.181 500.139-500.053-500.096zM908.8 447.957l-396.757-396.757-396.8 396.8 396.715 396.715 396.843-396.757z" />
<glyph unicode="&#xe91c;" glyph-name="tertiary-pov-antag" d="M634.837 447.957c0-67.84-54.997-122.837-122.837-122.837s-122.837 54.997-122.837 122.837 54.997 122.837 122.837 122.837 122.837-55.040 122.837-122.837zM11.904 448l500.096-500.096 500.096 500.053-500.139 500.139-500.053-500.096zM908.8 447.957l-396.757-396.757-396.8 396.8 396.715 396.715 396.843-396.757z" />
<glyph unicode="&#xe91d;" glyph-name="tertiary-pov" d="M512 105.984c93.355 0 173.653 33.664 240.981 100.992s100.992 147.627 100.992 240.939-33.664 173.653-100.992 240.981-147.627 101.035-240.981 101.035-173.653-33.664-240.981-100.992-100.992-147.627-100.992-240.981 33.664-173.611 100.992-240.939 147.627-101.035 240.981-101.035zM512 873.984c117.333 0 217.685-41.685 301.013-125.013 83.328-83.371 125.013-183.68 125.013-301.013s-41.685-217.685-125.013-301.056c-83.328-83.328-183.68-125.013-301.013-125.013s-217.685 41.685-301.013 125.013c-83.328 83.371-125.013 183.723-125.013 301.056s41.685 217.685 125.013 301.013c83.328 83.328 183.68 125.013 301.013 125.013zM634.837 447.957c0-67.84-54.997-122.837-122.837-122.837s-122.837 54.997-122.837 122.837c0 67.84 54.997 122.837 122.837 122.837s122.837-55.040 122.837-122.837z" />
<glyph unicode="&#xe91e;" glyph-name="tertiary" d="M512 105.984q139.989 0 240.981 100.992t100.992 240.981-100.992 240.981-240.981 100.992-240.981-100.992-100.992-240.981 100.992-240.981 240.981-100.992zM512 873.984q176 0 301.013-125.013t125.013-301.013-125.013-301.013-301.013-125.013-301.013 125.013-125.013 301.013 125.013 301.013 301.013 125.013z" />
<glyph unicode="&#xe91f;" glyph-name="close" d="M132.198 261.581c-13.926-13.722-36.301-13.722-50.125 0s-13.875 35.891 0 49.613l404.89 400.896c13.824 13.722 36.198 13.722 50.125 0l404.89-400.896c13.824-13.722 13.824-35.891 0-49.613-13.875-13.722-36.301-13.722-50.074 0l-379.904 365.619-379.802-365.619z" />
<glyph unicode="&#xe920;" glyph-name="mention" d="M884.48 928c28.384 0 53.376-10.848 75.008-32.512 21.664-21.696 32.48-46.72 32.512-75.008v-212.512h-107.52v212.512h-212.48v107.52h212.48zM884.48 75.52v212.48h107.52v-212.48c0-28.384-10.816-53.376-32.544-75.008-21.632-21.696-46.624-32.512-75.008-32.544h-212.448v107.52h212.48zM139.52 288v-212.48h212.512v-107.52h-212.512c-28.352 0-53.344 10.816-75.008 32.544-21.632 21.6-32.48 46.624-32.512 74.976v212.48h107.52zM32 820.48c0 28.352 10.848 53.344 32.512 75.008 21.696 21.632 46.72 32.48 75.008 32.512h212.512v-107.52h-212.512v-212.512h-107.52v212.512z" />
<glyph unicode="&#xe921;" glyph-name="speaks" d="M884.512 75.488v744.992h-744.992v-744.96h744.992zM884.512 928c28.352 0 53.344-10.848 75.008-32.544 21.632-21.664 32.448-46.656 32.48-74.976v-744.96c0-28.352-10.816-53.344-32.512-75.008-21.664-21.664-46.656-32.48-75.008-32.512h-744.96c-28.352 0-53.344 10.816-75.008 32.512-21.664 21.632-32.512 46.656-32.512 74.976v744.992c0 28.352 10.848 53.344 32.544 75.008 21.664 21.664 46.656 32.512 74.976 32.512h744.992zM512 660.48c58.336 0 108.352-20.832 150.016-62.496 41.664-41.696 62.496-91.68 62.496-150.016 0.032-58.304-20.768-108.32-62.496-150.016s-91.744-62.528-150.016-62.528c-58.304 0-108.288 20.832-150.016 62.528s-62.528 91.68-62.528 150.016c0 58.336 20.864 108.32 62.528 150.016 41.664 41.664 91.68 62.496 150.016 62.496z" />
<glyph unicode="&#xe923;" glyph-name="edit" d="M752.128 836.557c-96.973 70.605-165.99 69.069-192.205 64.819-7.373-1.178-13.568-5.427-17.92-11.418l-352.41-486.246c-14.182-19.558-22.374-42.803-23.654-66.918l-15.155-287.949c-1.075-20.736 19.558-35.738 38.912-28.314l269.107 102.912c22.682 8.704 42.394 23.808 56.627 43.469l352.256 486.093c4.557 6.298 6.4 13.978 5.12 21.658-4.301 26.931-24.934 92.262-120.678 161.894zM459.622 180.992l-104.602-40.397c-4.096-1.587-8.653-0.307-11.315 3.174-13.466 17.152-29.491 34.15-55.040 52.736-25.549 18.534-46.643 28.57-67.072 36.147-4.096 1.536-6.707 5.427-6.451 9.83l6.246 111.923 28.109 38.656c0 0 62.925 8.653 145.050-51.098 82.022-59.699 93.235-122.266 93.235-122.266l-28.16-38.707z" />
</font>
</defs>
</svg>
